<mxfile host="Electron" modified="2023-05-26T05:54:40.099Z" agent="Mozilla/5.0 (Windows NT 10.0; Win64; x64) AppleWebKit/537.36 (KHTML, like Gecko) draw.io/21.2.8 Chrome/112.0.5615.165 Electron/24.2.0 Safari/537.36" etag="jB3szMC5CkmMdSwIf_FL" version="21.2.8" type="device">
  <diagram name="Page-1" id="cvsuOsFnplnTWa6kdJm-">
    <mxGraphModel dx="1036" dy="606" grid="1" gridSize="10" guides="1" tooltips="1" connect="1" arrows="1" fold="1" page="1" pageScale="1" pageWidth="850" pageHeight="1100" math="0" shadow="0">
      <root>
        <mxCell id="0" />
        <mxCell id="1" parent="0" />
        <mxCell id="5jSpgW5YvfbKjvvQM04w-1" value="Player" style="swimlane;fontStyle=1;align=center;verticalAlign=top;childLayout=stackLayout;horizontal=1;startSize=26;horizontalStack=0;resizeParent=1;resizeParentMax=0;resizeLast=0;collapsible=1;marginBottom=0;whiteSpace=wrap;html=1;" vertex="1" parent="1">
          <mxGeometry x="110" y="166" width="160" height="300" as="geometry" />
        </mxCell>
        <mxCell id="5jSpgW5YvfbKjvvQM04w-2" value="-interface:gui&lt;br&gt;-ActiveEffects:Effect&lt;br&gt;+PositionX: float&lt;br&gt;+PositionY: float&lt;br&gt;+PositionZ: float&lt;br&gt;+ArmorHelm:Armor" style="text;strokeColor=none;fillColor=none;align=left;verticalAlign=top;spacingLeft=4;spacingRight=4;overflow=hidden;rotatable=0;points=[[0,0.5],[1,0.5]];portConstraint=eastwest;whiteSpace=wrap;html=1;" vertex="1" parent="5jSpgW5YvfbKjvvQM04w-1">
          <mxGeometry y="26" width="160" height="94" as="geometry" />
        </mxCell>
        <mxCell id="5jSpgW5YvfbKjvvQM04w-3" value="" style="line;strokeWidth=1;fillColor=none;align=left;verticalAlign=middle;spacingTop=-1;spacingLeft=3;spacingRight=3;rotatable=0;labelPosition=right;points=[];portConstraint=eastwest;strokeColor=inherit;" vertex="1" parent="5jSpgW5YvfbKjvvQM04w-1">
          <mxGeometry y="120" width="160" height="8" as="geometry" />
        </mxCell>
        <mxCell id="5jSpgW5YvfbKjvvQM04w-4" value="+Hit():void&lt;br&gt;+Hurt():float&lt;br&gt;+Move():float&lt;br&gt;+throw():void&lt;br&gt;+crouch():void&lt;br&gt;+jump():void&lt;br&gt;+die():void&lt;br&gt;+mine():float&lt;br&gt;+placeX():int&lt;br&gt;+placeY():int&lt;br&gt;+placeZ():int" style="text;strokeColor=none;fillColor=none;align=left;verticalAlign=top;spacingLeft=4;spacingRight=4;overflow=hidden;rotatable=0;points=[[0,0.5],[1,0.5]];portConstraint=eastwest;whiteSpace=wrap;html=1;" vertex="1" parent="5jSpgW5YvfbKjvvQM04w-1">
          <mxGeometry y="128" width="160" height="172" as="geometry" />
        </mxCell>
        <mxCell id="5jSpgW5YvfbKjvvQM04w-5" value="World" style="swimlane;fontStyle=1;align=center;verticalAlign=top;childLayout=stackLayout;horizontal=1;startSize=26;horizontalStack=0;resizeParent=1;resizeParentMax=0;resizeLast=0;collapsible=1;marginBottom=0;whiteSpace=wrap;html=1;" vertex="1" parent="1">
          <mxGeometry x="540" y="176" width="160" height="230" as="geometry" />
        </mxCell>
        <mxCell id="5jSpgW5YvfbKjvvQM04w-6" value="-MapX:int&lt;br&gt;-MapY:int&lt;br&gt;-Mapz:int&lt;br&gt;+Blocks:Block&lt;br&gt;+Entities:Entity&lt;br&gt;+Time: float" style="text;strokeColor=none;fillColor=none;align=left;verticalAlign=top;spacingLeft=4;spacingRight=4;overflow=hidden;rotatable=0;points=[[0,0.5],[1,0.5]];portConstraint=eastwest;whiteSpace=wrap;html=1;" vertex="1" parent="5jSpgW5YvfbKjvvQM04w-5">
          <mxGeometry y="26" width="160" height="94" as="geometry" />
        </mxCell>
        <mxCell id="5jSpgW5YvfbKjvvQM04w-7" value="" style="line;strokeWidth=1;fillColor=none;align=left;verticalAlign=middle;spacingTop=-1;spacingLeft=3;spacingRight=3;rotatable=0;labelPosition=right;points=[];portConstraint=eastwest;strokeColor=inherit;" vertex="1" parent="5jSpgW5YvfbKjvvQM04w-5">
          <mxGeometry y="120" width="160" height="8" as="geometry" />
        </mxCell>
        <mxCell id="5jSpgW5YvfbKjvvQM04w-8" value="+GetMapX():int&lt;br&gt;+GetMapY():int&lt;br&gt;+GetMapZ():int&lt;br&gt;+GetEntity():Entity&lt;br&gt;+GetBlock():Block&lt;br&gt;+SetTime():float" style="text;strokeColor=none;fillColor=none;align=left;verticalAlign=top;spacingLeft=4;spacingRight=4;overflow=hidden;rotatable=0;points=[[0,0.5],[1,0.5]];portConstraint=eastwest;whiteSpace=wrap;html=1;" vertex="1" parent="5jSpgW5YvfbKjvvQM04w-5">
          <mxGeometry y="128" width="160" height="102" as="geometry" />
        </mxCell>
        <mxCell id="5jSpgW5YvfbKjvvQM04w-9" value="Block" style="swimlane;fontStyle=1;align=center;verticalAlign=top;childLayout=stackLayout;horizontal=1;startSize=26;horizontalStack=0;resizeParent=1;resizeParentMax=0;resizeLast=0;collapsible=1;marginBottom=0;whiteSpace=wrap;html=1;" vertex="1" parent="1">
          <mxGeometry x="640" y="516" width="160" height="118" as="geometry" />
        </mxCell>
        <mxCell id="5jSpgW5YvfbKjvvQM04w-10" value="+PositionX: int&lt;br style=&quot;border-color: var(--border-color);&quot;&gt;+PositionY: int&lt;br style=&quot;border-color: var(--border-color);&quot;&gt;+PositionZ: int&lt;br&gt;+Gravity:bool&lt;br&gt;+LightSource:" style="text;strokeColor=none;fillColor=none;align=left;verticalAlign=top;spacingLeft=4;spacingRight=4;overflow=hidden;rotatable=0;points=[[0,0.5],[1,0.5]];portConstraint=eastwest;whiteSpace=wrap;html=1;" vertex="1" parent="5jSpgW5YvfbKjvvQM04w-9">
          <mxGeometry y="26" width="160" height="84" as="geometry" />
        </mxCell>
        <mxCell id="5jSpgW5YvfbKjvvQM04w-11" value="" style="line;strokeWidth=1;fillColor=none;align=left;verticalAlign=middle;spacingTop=-1;spacingLeft=3;spacingRight=3;rotatable=0;labelPosition=right;points=[];portConstraint=eastwest;strokeColor=inherit;" vertex="1" parent="5jSpgW5YvfbKjvvQM04w-9">
          <mxGeometry y="110" width="160" height="8" as="geometry" />
        </mxCell>
        <mxCell id="5jSpgW5YvfbKjvvQM04w-13" value="Entity" style="swimlane;fontStyle=1;align=center;verticalAlign=top;childLayout=stackLayout;horizontal=1;startSize=26;horizontalStack=0;resizeParent=1;resizeParentMax=0;resizeLast=0;collapsible=1;marginBottom=0;whiteSpace=wrap;html=1;" vertex="1" parent="1">
          <mxGeometry x="410" y="490" width="160" height="160" as="geometry" />
        </mxCell>
        <mxCell id="5jSpgW5YvfbKjvvQM04w-14" value="+PositionX: float&lt;br style=&quot;border-color: var(--border-color);&quot;&gt;+PositionY: float&lt;br style=&quot;border-color: var(--border-color);&quot;&gt;+PositionZ: float&lt;br&gt;+ActiveEffects:Effect&lt;br&gt;+ArmorHelm:Armor&lt;br&gt;" style="text;strokeColor=none;fillColor=none;align=left;verticalAlign=top;spacingLeft=4;spacingRight=4;overflow=hidden;rotatable=0;points=[[0,0.5],[1,0.5]];portConstraint=eastwest;whiteSpace=wrap;html=1;" vertex="1" parent="5jSpgW5YvfbKjvvQM04w-13">
          <mxGeometry y="26" width="160" height="84" as="geometry" />
        </mxCell>
        <mxCell id="5jSpgW5YvfbKjvvQM04w-15" value="" style="line;strokeWidth=1;fillColor=none;align=left;verticalAlign=middle;spacingTop=-1;spacingLeft=3;spacingRight=3;rotatable=0;labelPosition=right;points=[];portConstraint=eastwest;strokeColor=inherit;" vertex="1" parent="5jSpgW5YvfbKjvvQM04w-13">
          <mxGeometry y="110" width="160" height="8" as="geometry" />
        </mxCell>
        <mxCell id="5jSpgW5YvfbKjvvQM04w-16" value="+Hurt():float&lt;br style=&quot;border-color: var(--border-color);&quot;&gt;+die():void" style="text;strokeColor=none;fillColor=none;align=left;verticalAlign=top;spacingLeft=4;spacingRight=4;overflow=hidden;rotatable=0;points=[[0,0.5],[1,0.5]];portConstraint=eastwest;whiteSpace=wrap;html=1;" vertex="1" parent="5jSpgW5YvfbKjvvQM04w-13">
          <mxGeometry y="118" width="160" height="42" as="geometry" />
        </mxCell>
        <mxCell id="5jSpgW5YvfbKjvvQM04w-17" value="Display" style="swimlane;fontStyle=1;align=center;verticalAlign=top;childLayout=stackLayout;horizontal=1;startSize=26;horizontalStack=0;resizeParent=1;resizeParentMax=0;resizeLast=0;collapsible=1;marginBottom=0;whiteSpace=wrap;html=1;" vertex="1" parent="1">
          <mxGeometry x="360" y="60" width="160" height="114" as="geometry" />
        </mxCell>
        <mxCell id="5jSpgW5YvfbKjvvQM04w-18" value="-render: World&lt;br&gt;" style="text;strokeColor=none;fillColor=none;align=left;verticalAlign=top;spacingLeft=4;spacingRight=4;overflow=hidden;rotatable=0;points=[[0,0.5],[1,0.5]];portConstraint=eastwest;whiteSpace=wrap;html=1;" vertex="1" parent="5jSpgW5YvfbKjvvQM04w-17">
          <mxGeometry y="26" width="160" height="54" as="geometry" />
        </mxCell>
        <mxCell id="5jSpgW5YvfbKjvvQM04w-19" value="" style="line;strokeWidth=1;fillColor=none;align=left;verticalAlign=middle;spacingTop=-1;spacingLeft=3;spacingRight=3;rotatable=0;labelPosition=right;points=[];portConstraint=eastwest;strokeColor=inherit;" vertex="1" parent="5jSpgW5YvfbKjvvQM04w-17">
          <mxGeometry y="80" width="160" height="8" as="geometry" />
        </mxCell>
        <mxCell id="5jSpgW5YvfbKjvvQM04w-20" value="+togglePerspective():" style="text;strokeColor=none;fillColor=none;align=left;verticalAlign=top;spacingLeft=4;spacingRight=4;overflow=hidden;rotatable=0;points=[[0,0.5],[1,0.5]];portConstraint=eastwest;whiteSpace=wrap;html=1;" vertex="1" parent="5jSpgW5YvfbKjvvQM04w-17">
          <mxGeometry y="88" width="160" height="26" as="geometry" />
        </mxCell>
        <mxCell id="5jSpgW5YvfbKjvvQM04w-29" value="gui" style="swimlane;fontStyle=1;align=center;verticalAlign=top;childLayout=stackLayout;horizontal=1;startSize=30;horizontalStack=0;resizeParent=1;resizeParentMax=0;resizeLast=0;collapsible=1;marginBottom=0;whiteSpace=wrap;html=1;" vertex="1" parent="1">
          <mxGeometry x="80" y="506" width="160" height="160" as="geometry" />
        </mxCell>
        <mxCell id="5jSpgW5YvfbKjvvQM04w-30" value="+healthbar:int&lt;br&gt;+slots:int&lt;br&gt;+armorbar:int&lt;br&gt;+inventory: nbt&lt;br&gt;-saturationbar:float" style="text;strokeColor=none;fillColor=none;align=left;verticalAlign=top;spacingLeft=4;spacingRight=4;overflow=hidden;rotatable=0;points=[[0,0.5],[1,0.5]];portConstraint=eastwest;whiteSpace=wrap;html=1;" vertex="1" parent="5jSpgW5YvfbKjvvQM04w-29">
          <mxGeometry y="30" width="160" height="80" as="geometry" />
        </mxCell>
        <mxCell id="5jSpgW5YvfbKjvvQM04w-31" value="" style="line;strokeWidth=1;fillColor=none;align=left;verticalAlign=middle;spacingTop=-1;spacingLeft=3;spacingRight=3;rotatable=0;labelPosition=right;points=[];portConstraint=eastwest;strokeColor=inherit;" vertex="1" parent="5jSpgW5YvfbKjvvQM04w-29">
          <mxGeometry y="110" width="160" height="8" as="geometry" />
        </mxCell>
        <mxCell id="5jSpgW5YvfbKjvvQM04w-32" value="+AddSaturation():float&lt;br&gt;+ChangeInv():nbt" style="text;strokeColor=none;fillColor=none;align=left;verticalAlign=top;spacingLeft=4;spacingRight=4;overflow=hidden;rotatable=0;points=[[0,0.5],[1,0.5]];portConstraint=eastwest;whiteSpace=wrap;html=1;" vertex="1" parent="5jSpgW5YvfbKjvvQM04w-29">
          <mxGeometry y="118" width="160" height="42" as="geometry" />
        </mxCell>
        <mxCell id="5jSpgW5YvfbKjvvQM04w-33" value="nbt" style="swimlane;fontStyle=1;align=center;verticalAlign=top;childLayout=stackLayout;horizontal=1;startSize=26;horizontalStack=0;resizeParent=1;resizeParentMax=0;resizeLast=0;collapsible=1;marginBottom=0;whiteSpace=wrap;html=1;" vertex="1" parent="1">
          <mxGeometry x="230" y="726" width="160" height="60" as="geometry" />
        </mxCell>
        <mxCell id="5jSpgW5YvfbKjvvQM04w-34" value="-data: item" style="text;strokeColor=none;fillColor=none;align=left;verticalAlign=top;spacingLeft=4;spacingRight=4;overflow=hidden;rotatable=0;points=[[0,0.5],[1,0.5]];portConstraint=eastwest;whiteSpace=wrap;html=1;" vertex="1" parent="5jSpgW5YvfbKjvvQM04w-33">
          <mxGeometry y="26" width="160" height="26" as="geometry" />
        </mxCell>
        <mxCell id="5jSpgW5YvfbKjvvQM04w-35" value="" style="line;strokeWidth=1;fillColor=none;align=left;verticalAlign=middle;spacingTop=-1;spacingLeft=3;spacingRight=3;rotatable=0;labelPosition=right;points=[];portConstraint=eastwest;strokeColor=inherit;" vertex="1" parent="5jSpgW5YvfbKjvvQM04w-33">
          <mxGeometry y="52" width="160" height="8" as="geometry" />
        </mxCell>
        <mxCell id="5jSpgW5YvfbKjvvQM04w-37" value="1" style="endArrow=open;html=1;endSize=12;startArrow=diamondThin;startSize=14;startFill=1;edgeStyle=orthogonalEdgeStyle;align=left;verticalAlign=bottom;rounded=0;exitX=1;exitY=0.5;exitDx=0;exitDy=0;" edge="1" parent="1" source="5jSpgW5YvfbKjvvQM04w-2">
          <mxGeometry x="-1" y="3" relative="1" as="geometry">
            <mxPoint x="280" y="236" as="sourcePoint" />
            <mxPoint x="440" y="176" as="targetPoint" />
            <Array as="points">
              <mxPoint x="440" y="239" />
            </Array>
          </mxGeometry>
        </mxCell>
        <mxCell id="5jSpgW5YvfbKjvvQM04w-38" value="" style="endArrow=block;startArrow=block;endFill=1;startFill=1;html=1;rounded=0;exitX=0.438;exitY=1.024;exitDx=0;exitDy=0;exitPerimeter=0;entryX=0;entryY=0.5;entryDx=0;entryDy=0;" edge="1" parent="1" source="5jSpgW5YvfbKjvvQM04w-32" target="5jSpgW5YvfbKjvvQM04w-33">
          <mxGeometry width="160" relative="1" as="geometry">
            <mxPoint x="390" y="546" as="sourcePoint" />
            <mxPoint x="550" y="546" as="targetPoint" />
            <Array as="points">
              <mxPoint x="150" y="756" />
            </Array>
          </mxGeometry>
        </mxCell>
        <mxCell id="5jSpgW5YvfbKjvvQM04w-40" value="1" style="endArrow=open;html=1;endSize=12;startArrow=diamondThin;startSize=14;startFill=1;edgeStyle=orthogonalEdgeStyle;align=left;verticalAlign=bottom;rounded=0;exitX=0;exitY=0.367;exitDx=0;exitDy=0;exitPerimeter=0;" edge="1" parent="1" source="5jSpgW5YvfbKjvvQM04w-6">
          <mxGeometry x="-1" y="3" relative="1" as="geometry">
            <mxPoint x="530" y="236" as="sourcePoint" />
            <mxPoint x="440" y="176" as="targetPoint" />
          </mxGeometry>
        </mxCell>
        <mxCell id="5jSpgW5YvfbKjvvQM04w-39" value="1" style="endArrow=open;html=1;endSize=12;startArrow=diamondThin;startSize=14;startFill=1;edgeStyle=orthogonalEdgeStyle;align=left;verticalAlign=bottom;rounded=0;exitX=-0.025;exitY=0.127;exitDx=0;exitDy=0;exitPerimeter=0;" edge="1" parent="1" source="5jSpgW5YvfbKjvvQM04w-30" target="5jSpgW5YvfbKjvvQM04w-4">
          <mxGeometry x="-1" y="-10" relative="1" as="geometry">
            <mxPoint x="100" y="506" as="sourcePoint" />
            <mxPoint x="190" y="476" as="targetPoint" />
            <Array as="points">
              <mxPoint x="50" y="546" />
              <mxPoint x="50" y="380" />
            </Array>
            <mxPoint as="offset" />
          </mxGeometry>
        </mxCell>
        <mxCell id="5jSpgW5YvfbKjvvQM04w-41" value="" style="html=1;verticalAlign=bottom;endArrow=block;edgeStyle=elbowEdgeStyle;elbow=vertical;curved=0;rounded=0;exitX=0.48;exitY=1.041;exitDx=0;exitDy=0;exitPerimeter=0;" edge="1" parent="1" source="5jSpgW5YvfbKjvvQM04w-8">
          <mxGeometry x="-1" y="310" width="80" relative="1" as="geometry">
            <mxPoint x="590" y="436" as="sourcePoint" />
            <mxPoint x="480" y="486" as="targetPoint" />
            <Array as="points">
              <mxPoint x="540" y="456" />
            </Array>
            <mxPoint x="-107" y="-234" as="offset" />
          </mxGeometry>
        </mxCell>
        <mxCell id="5jSpgW5YvfbKjvvQM04w-42" value="" style="html=1;verticalAlign=bottom;endArrow=block;edgeStyle=elbowEdgeStyle;elbow=vertical;curved=0;rounded=0;exitX=0.48;exitY=1.049;exitDx=0;exitDy=0;exitPerimeter=0;entryX=0.5;entryY=0;entryDx=0;entryDy=0;" edge="1" parent="1" source="5jSpgW5YvfbKjvvQM04w-8" target="5jSpgW5YvfbKjvvQM04w-9">
          <mxGeometry x="0.4762" y="293" width="80" relative="1" as="geometry">
            <mxPoint x="430" y="546" as="sourcePoint" />
            <mxPoint x="510" y="546" as="targetPoint" />
            <Array as="points">
              <mxPoint x="620" y="456" />
              <mxPoint x="670" y="456" />
            </Array>
            <mxPoint x="-193" y="-275" as="offset" />
          </mxGeometry>
        </mxCell>
        <mxCell id="5jSpgW5YvfbKjvvQM04w-44" value="" style="endArrow=block;startArrow=block;endFill=1;startFill=1;html=1;rounded=0;entryX=0.058;entryY=-0.014;entryDx=0;entryDy=0;entryPerimeter=0;exitX=1;exitY=0.5;exitDx=0;exitDy=0;" edge="1" parent="1" source="5jSpgW5YvfbKjvvQM04w-4" target="5jSpgW5YvfbKjvvQM04w-13">
          <mxGeometry width="160" relative="1" as="geometry">
            <mxPoint x="90" y="446" as="sourcePoint" />
            <mxPoint x="250" y="446" as="targetPoint" />
            <Array as="points">
              <mxPoint x="420" y="380" />
            </Array>
          </mxGeometry>
        </mxCell>
        <mxCell id="5jSpgW5YvfbKjvvQM04w-45" value="" style="endArrow=block;startArrow=block;endFill=1;startFill=1;html=1;rounded=0;exitX=1;exitY=0.5;exitDx=0;exitDy=0;entryX=0.5;entryY=1;entryDx=0;entryDy=0;" edge="1" parent="1" source="5jSpgW5YvfbKjvvQM04w-33" target="5jSpgW5YvfbKjvvQM04w-9">
          <mxGeometry width="160" relative="1" as="geometry">
            <mxPoint x="360" y="646" as="sourcePoint" />
            <mxPoint x="520" y="646" as="targetPoint" />
            <Array as="points">
              <mxPoint x="720" y="756" />
            </Array>
          </mxGeometry>
        </mxCell>
      </root>
    </mxGraphModel>
  </diagram>
</mxfile>
